{"glyphs":{":":{"x_min":0,"x_max":278,"ha":278,"o":"m 102 0 l 102 88 l 175 88 l 175 0 z m 102 404 l 102 492 l 175 492 l 175 404 z"},"$":{"x_min":0,"x_max":556,"ha":556,"o":"m 255 651 q 227 651 202 642 q 178 633 160 616 q 141 600 130 577 q 120 554 120 526 q 120 493 130 471 q 141 449 160 434 q 178 420 202 411 q 227 402 255 394 z m 302 35 q 333 35 360 46 q 388 57 409 76 q 430 95 442 122 q 454 148 454 180 q 454 217 442 242 q 430 266 410 282 q 389 297 362 306 q 334 315 302 322 z m 302 -95 l 256 -95 l 256 -19 q 171 -14 116 28 q 60 70 42 154 q 40 167 39 179 q 38 191 37 203 l 102 203 q 102 169 113 140 q 124 110 144 88 q 165 65 193 51 q 221 37 255 35 l 255 332 q 214 342 178 356 q 141 369 114 390 q 87 412 72 444 q 56 476 56 523 q 56 565 72 599 q 88 633 116 657 q 143 681 179 694 q 215 706 256 705 l 256 766 l 302 766 l 302 705 q 343 705 378 694 q 413 682 439 660 q 465 637 480 604 q 495 571 497 529 l 432 529 q 432 556 422 578 q 411 601 394 617 q 376 633 352 642 q 329 651 302 651 l 302 385 q 351 373 391 359 q 431 345 459 322 q 487 299 502 262 q 518 226 518 169 q 518 125 499 90 q 480 56 450 32 q 419 8 380 -5 q 341 -18 302 -19 z"},"?":{"x_min":0,"x_max":500,"ha":500,"o":"m 216 182 q 215 237 224 282 q 232 327 271 368 q 293 391 317 413 q 341 435 361 458 q 381 480 394 504 q 408 528 408 556 q 408 583 398 606 q 387 630 367 648 q 347 665 318 675 q 289 685 252 685 q 215 685 186 672 q 157 659 138 636 q 118 613 108 582 q 98 552 99 516 l 38 516 q 34 566 49 607 q 64 648 94 678 q 123 707 164 723 q 205 739 254 739 q 305 739 346 726 q 386 712 414 688 q 442 663 457 628 q 472 593 472 551 q 472 507 452 476 q 433 444 405 417 q 377 390 347 362 q 317 335 295 301 q 278 275 276 244 q 274 212 274 182 z m 210 0 l 210 88 l 283 88 l 283 0 z"},"<":{"x_min":0,"x_max":660,"ha":660,"o":"m 580 58 l 580 -6 l 80 229 l 80 282 l 580 505 l 580 441 l 159 255 z"},"'":{"x_min":0,"x_max":222,"ha":222,"o":"m 85 720 l 137 720 l 137 494 l 85 494 z"},"=":{"x_min":0,"x_max":660,"ha":660,"o":"m 580 318 l 80 318 l 80 378 l 580 378 z m 580 124 l 80 124 l 80 184 l 580 184 z"},"a":{"x_min":0,"x_max":556,"ha":556,"o":"m 411 272 q 373 256 334 251 q 295 246 256 243 q 187 238 148 212 q 110 186 110 133 q 110 109 120 92 q 129 74 144 62 q 160 51 180 46 q 201 40 222 40 q 258 40 292 49 q 326 58 352 76 q 379 95 395 124 q 411 152 411 191 z m 310 302 q 327 304 350 308 q 374 312 389 319 q 404 326 408 342 q 411 359 411 373 q 411 419 382 448 q 352 478 282 478 q 251 478 225 472 q 199 467 180 454 q 160 440 148 418 q 135 395 131 361 l 70 361 q 73 407 91 440 q 109 472 138 492 q 166 513 204 522 q 241 532 283 532 q 322 532 356 524 q 391 515 416 496 q 442 478 456 447 q 471 416 471 371 l 471 89 q 471 54 484 44 q 496 35 534 49 l 534 2 q 527 0 514 -4 q 500 -8 487 -8 q 473 -8 460 -5 q 445 -3 436 4 q 427 12 422 22 q 416 33 414 46 q 412 58 412 72 q 374 30 325 8 q 276 -14 219 -14 q 185 -14 154 -5 q 122 4 98 23 q 74 42 60 70 q 46 97 46 135 q 46 267 227 291 z"},"L":{"x_min":0,"x_max":556,"ha":556,"o":"m 81 0 l 81 720 l 149 720 l 149 58 l 535 58 l 535 0 z"},"3":{"x_min":0,"x_max":556,"ha":556,"o":"m 221 392 q 266 392 303 398 q 340 403 366 418 q 393 434 408 460 q 423 486 423 527 q 423 560 411 584 q 399 607 378 622 q 358 637 330 644 q 303 651 273 651 q 239 651 212 640 q 184 629 164 608 q 144 588 133 560 q 122 533 122 500 l 58 500 q 58 548 74 586 q 91 625 126 658 q 159 688 200 696 q 242 705 286 705 q 328 705 364 694 q 401 684 428 662 q 455 641 471 608 q 487 575 487 531 q 487 476 462 436 q 438 396 387 374 q 425 362 450 342 q 474 323 488 300 q 502 276 507 250 q 512 224 512 200 q 512 156 497 118 q 482 80 453 51 q 424 22 382 4 q 339 -13 285 -14 q 224 -14 179 -3 q 134 8 104 34 q 74 59 57 100 q 40 142 34 204 l 98 204 q 98 123 146 82 q 195 40 273 40 q 311 40 344 53 q 377 66 400 88 q 424 110 436 139 q 449 168 448 199 q 446 242 428 270 q 410 299 380 316 q 349 332 308 338 q 267 343 221 340 z"},";":{"x_min":0,"x_max":278,"ha":278,"o":"m 175 -30 q 175 -74 154 -100 q 134 -127 102 -137 l 102 -100 q 114 -92 125 -78 q 136 -64 136 -34 l 136 0 l 102 0 l 102 88 l 175 88 z m 102 404 l 102 492 l 175 492 l 175 404 z"},"J":{"x_min":0,"x_max":500,"ha":500,"o":"m 90 228 q 90 194 92 161 q 95 128 108 102 q 120 75 146 59 q 173 43 220 43 q 290 43 318 83 q 347 123 347 199 l 347 720 l 415 720 l 415 197 q 415 92 366 36 q 317 -19 212 -19 q 151 -19 114 2 q 77 22 56 56 q 36 91 29 136 q 22 180 22 228 z"},"V":{"x_min":0,"x_max":611,"ha":611,"o":"m 18 720 l 89 720 l 306 80 l 522 720 l 593 720 l 343 0 l 268 0 z"},"\"":{"x_min":0,"x_max":278,"ha":278,"o":"m 57 720 l 109 720 l 109 494 l 57 494 z m 168 720 l 220 720 l 220 494 l 168 494 z"},"7":{"x_min":0,"x_max":556,"ha":556,"o":"m 59 698 l 508 698 l 508 638 q 432 552 379 462 q 326 371 292 286 q 258 200 242 126 q 225 52 222 0 l 152 0 q 157 76 182 162 q 208 247 246 331 q 284 415 332 494 q 380 572 431 634 l 59 634 z"},"S":{"x_min":0,"x_max":611,"ha":611,"o":"m 109 215 q 113 167 130 134 q 148 100 176 79 q 203 58 239 48 q 275 39 316 39 q 364 39 399 51 q 434 63 456 84 q 478 104 488 131 q 499 158 499 188 q 499 230 480 256 q 461 282 430 298 q 400 315 360 325 q 321 335 280 344 q 238 354 198 367 q 159 380 128 402 q 98 424 79 458 q 60 493 60 546 q 60 583 76 618 q 91 653 122 680 q 152 707 198 723 q 244 739 304 739 q 365 739 410 722 q 456 705 486 676 q 516 646 531 607 q 546 568 546 524 l 481 524 q 481 565 466 595 q 452 625 427 644 q 402 663 370 672 q 338 681 304 681 q 252 681 216 666 q 181 652 160 629 q 139 606 131 578 q 123 550 128 522 q 134 487 156 466 q 178 445 210 432 q 242 418 280 410 q 319 401 359 392 q 399 382 436 369 q 474 356 503 334 q 532 312 550 278 q 567 243 567 191 q 567 91 498 36 q 429 -19 304 -19 q 248 -19 200 -4 q 152 10 117 40 q 82 69 62 112 q 43 156 43 215 z"},"}":{"x_min":0,"x_max":333,"ha":333,"o":"m 203 395 q 203 349 218 319 q 234 289 285 279 l 285 277 q 257 269 241 258 q 225 248 216 234 q 208 220 206 201 q 203 182 203 157 l 203 -25 q 203 -69 196 -100 q 190 -131 174 -150 q 157 -170 129 -178 q 101 -187 58 -185 q 139 -157 139 -64 l 139 128 q 139 157 142 181 q 145 205 154 224 q 163 243 179 256 q 195 270 221 277 l 221 279 q 196 285 180 296 q 164 307 155 324 q 146 341 142 364 q 139 386 139 414 l 139 620 q 139 671 119 699 q 99 727 51 741 l 51 743 q 95 744 124 736 q 154 728 172 710 q 189 692 196 664 q 203 637 203 599 z"},"Z":{"x_min":0,"x_max":611,"ha":611,"o":"m 31 0 l 31 57 l 492 662 l 70 662 l 70 720 l 576 720 l 576 663 l 115 58 l 579 58 l 579 0 z"},"x":{"x_min":0,"x_max":500,"ha":500,"o":"m 252 224 l 91 0 l 18 0 l 217 268 l 34 518 l 108 518 l 251 312 l 398 518 l 474 518 l 287 268 l 481 0 l 409 0 z"},")":{"x_min":0,"x_max":333,"ha":333,"o":"m 56 -191 q 128 -87 168 32 q 209 150 209 277 q 209 402 167 519 q 125 636 56 739 l 107 739 q 148 682 180 628 q 212 575 234 520 q 255 464 266 404 q 278 343 278 272 q 278 203 266 142 q 255 82 233 26 q 211 -30 179 -84 q 147 -137 107 -191 z"},"&":{"x_min":0,"x_max":667,"ha":667,"o":"m 249 375 q 219 361 194 342 q 168 322 150 298 q 131 274 120 246 q 109 219 109 190 q 109 154 122 126 q 134 97 156 77 q 177 57 206 46 q 236 35 271 35 q 329 35 374 62 q 418 88 454 131 z m 378 540 q 387 560 386 582 q 384 605 372 624 q 361 642 341 654 q 321 666 293 666 q 274 666 257 660 q 240 654 226 643 q 213 632 205 616 q 197 600 197 580 q 197 564 205 545 q 213 526 224 508 q 236 490 249 474 q 262 457 272 445 q 302 463 332 484 q 363 506 378 540 z m 488 186 q 507 218 512 254 q 518 289 518 326 l 577 326 q 575 277 564 228 q 554 180 527 138 l 644 0 l 563 0 l 493 85 q 446 29 392 5 q 338 -19 266 -19 q 219 -19 178 -4 q 137 12 106 40 q 76 68 58 108 q 41 147 41 195 q 41 235 55 269 q 69 303 92 331 q 116 359 147 380 q 178 402 213 418 q 184 452 160 492 q 136 531 136 579 q 136 613 149 640 q 162 666 184 684 q 206 702 236 711 q 265 720 298 720 q 331 720 359 709 q 387 698 407 679 q 427 660 438 634 q 449 609 449 581 q 449 545 438 518 q 426 492 406 472 q 387 451 361 434 q 335 417 307 400 z"},"_":{"x_min":0,"x_max":500,"ha":500,"o":"m 500 -75 l 500 -125 l 0 -125 l 0 -75 z"},"v":{"x_min":0,"x_max":500,"ha":500,"o":"m 17 518 l 82 518 l 250 74 l 418 518 l 483 518 l 282 0 l 215 0 z"},"O":{"x_min":0,"x_max":778,"ha":778,"o":"m 53 359 q 53 438 74 507 q 96 576 138 628 q 180 679 242 709 q 304 739 385 739 q 469 739 532 710 q 596 680 638 628 q 681 577 702 508 q 724 438 724 359 q 724 281 702 212 q 681 144 639 92 q 597 41 534 11 q 471 -19 388 -19 q 305 -19 242 11 q 179 41 137 92 q 95 144 74 212 q 53 281 53 359 z m 389 39 q 459 39 510 66 q 560 92 592 136 q 625 180 640 238 q 656 296 656 359 q 656 434 638 494 q 619 553 584 595 q 549 637 499 659 q 449 681 387 681 q 318 681 268 654 q 217 627 184 582 q 152 538 136 480 q 121 422 121 359 q 121 295 136 237 q 152 179 184 135 q 217 91 268 65 q 318 39 389 39 z"},"(":{"x_min":0,"x_max":333,"ha":333,"o":"m 277 739 q 205 635 164 516 q 124 398 124 271 q 124 146 166 29 q 208 -88 277 -191 l 226 -191 q 185 -134 153 -80 q 121 -27 99 28 q 77 84 66 144 q 55 205 55 276 q 55 345 66 406 q 78 466 100 522 q 122 578 154 632 q 185 685 226 739 z"},"C":{"x_min":0,"x_max":722,"ha":722,"o":"m 592 511 q 571 603 514 642 q 457 681 365 681 q 300 681 253 655 q 206 629 176 585 q 145 541 130 484 q 116 426 116 362 q 116 302 128 244 q 141 186 170 140 q 199 95 248 67 q 297 39 371 39 q 417 39 455 54 q 493 69 522 96 q 550 122 570 158 q 589 194 599 237 l 670 237 q 658 185 635 138 q 612 92 574 57 q 537 22 484 2 q 430 -19 358 -19 q 275 -19 216 12 q 157 42 120 94 q 82 146 65 214 q 48 283 48 360 q 48 463 74 535 q 99 607 144 652 q 189 698 250 718 q 311 739 383 739 q 438 739 486 724 q 533 710 570 681 q 606 652 630 610 q 653 567 662 511 z"},"W":{"x_min":0,"x_max":889,"ha":889,"o":"m 646 96 l 648 96 l 805 720 l 875 720 l 686 0 l 611 0 l 444 636 l 442 636 l 275 0 l 200 0 l 14 720 l 82 720 l 237 96 l 239 96 l 406 720 l 482 720 z"},"A":{"x_min":0,"x_max":667,"ha":667,"o":"m 15 0 l 298 720 l 375 720 l 651 0 l 581 0 l 498 226 l 170 226 l 85 0 z m 193 284 l 475 284 l 334 662 z"},"f":{"x_min":0,"x_max":278,"ha":278,"o":"m 20 468 l 20 518 l 97 518 l 97 600 q 97 662 122 698 q 147 734 207 734 q 221 734 233 733 q 245 732 257 730 l 257 675 q 237 680 221 680 q 198 680 185 672 q 172 663 166 649 q 160 635 158 618 q 157 600 157 582 l 157 518 l 257 518 l 257 468 l 157 468 l 157 0 l 97 0 l 97 468 z"},"Q":{"x_min":0,"x_max":778,"ha":778,"o":"m 707 -6 l 669 -52 l 563 30 q 526 7 482 -6 q 437 -19 383 -19 q 300 -19 237 11 q 174 41 132 92 q 90 144 69 212 q 48 281 48 359 q 48 434 68 502 q 89 571 130 624 q 171 676 234 708 q 296 739 380 739 q 456 739 518 714 q 581 689 626 641 q 670 593 694 522 q 719 451 719 359 q 719 271 692 196 q 665 121 611 68 z m 561 107 q 607 151 629 218 q 651 284 651 359 q 651 440 630 500 q 610 560 574 600 q 538 641 489 661 q 440 681 382 681 q 313 681 262 654 q 212 627 180 582 q 147 537 132 479 q 116 421 116 359 q 116 295 132 237 q 147 179 180 135 q 212 91 262 65 q 313 39 384 39 q 422 39 453 48 q 484 56 510 71 l 428 134 l 464 181 z"},"w":{"x_min":0,"x_max":722,"ha":722,"o":"m 510 80 l 646 518 l 707 518 l 539 0 l 475 0 l 362 435 l 360 435 l 245 0 l 173 0 l 15 518 l 75 518 l 209 76 l 329 518 l 396 518 z"},"-":{"x_min":0,"x_max":333,"ha":333,"o":"m 293 291 l 293 229 l 40 229 l 40 291 z"},"E":{"x_min":0,"x_max":611,"ha":611,"o":"m 81 0 l 81 720 l 560 720 l 560 662 l 149 662 l 149 402 l 520 402 l 520 344 l 149 344 l 149 58 l 570 58 l 570 0 z"},"s":{"x_min":0,"x_max":500,"ha":500,"o":"m 107 162 q 121 95 158 68 q 194 40 262 40 q 295 40 319 48 q 343 56 358 70 q 374 83 382 100 q 390 117 390 136 q 390 174 366 192 q 341 211 304 222 q 267 232 224 240 q 181 247 144 262 q 107 277 82 305 q 58 333 58 384 q 58 449 106 490 q 153 532 240 532 q 324 532 376 494 q 429 457 440 369 l 379 369 q 371 429 334 454 q 296 478 239 478 q 182 478 152 454 q 122 429 122 389 q 122 354 146 336 q 171 317 208 306 q 245 294 288 285 q 331 276 368 260 q 405 243 430 215 q 454 187 454 137 q 454 100 438 72 q 422 43 394 24 q 366 5 328 -4 q 289 -14 243 -14 q 197 -14 162 0 q 126 13 101 37 q 76 61 62 93 q 48 125 46 162 z"},">":{"x_min":0,"x_max":660,"ha":660,"o":"m 580 229 l 80 -6 l 80 58 l 501 255 l 80 441 l 80 505 l 580 282 z"},"l":{"x_min":0,"x_max":222,"ha":222,"o":"m 81 0 l 81 720 l 141 720 l 141 0 z"},"8":{"x_min":0,"x_max":556,"ha":556,"o":"m 279 345 q 242 345 211 336 q 180 327 157 308 q 134 290 121 262 q 108 233 108 194 q 108 161 120 133 q 133 105 156 84 q 178 64 210 52 q 243 40 283 40 q 318 40 348 52 q 378 63 400 84 q 423 105 436 134 q 448 163 448 198 q 448 235 435 262 q 422 290 399 308 q 376 327 345 336 q 314 345 279 345 z m 276 651 q 246 651 220 643 q 194 635 174 619 q 155 603 144 579 q 133 555 133 524 q 133 491 146 468 q 158 444 179 429 q 200 414 227 406 q 254 399 283 399 q 312 399 337 406 q 362 414 380 431 q 398 448 408 474 q 419 500 419 538 q 419 592 384 622 q 349 651 276 651 z m 167 379 q 141 395 122 410 q 104 424 92 441 q 80 458 74 480 q 69 501 69 533 q 69 569 85 601 q 101 633 128 656 q 155 680 192 693 q 228 706 270 705 q 310 705 348 695 q 387 685 417 664 q 447 643 465 610 q 483 578 483 533 q 483 478 460 439 q 438 400 387 375 q 445 354 478 308 q 512 262 512 200 q 512 148 494 108 q 477 68 444 41 q 412 14 366 0 q 320 -14 264 -14 q 226 -14 186 -1 q 147 12 116 38 q 84 64 64 103 q 44 142 44 194 q 44 257 76 306 q 107 356 167 379 z"},"\\":{"x_min":0,"x_max":278,"ha":278,"o":"m -10 739 l 46 739 l 281 -90 l 225 -90 z"},"e":{"x_min":0,"x_max":556,"ha":556,"o":"m 447 295 q 447 333 436 366 q 426 400 406 424 q 385 449 354 464 q 323 478 283 478 q 243 478 212 463 q 182 448 160 423 q 139 398 126 365 q 113 332 109 295 z m 109 245 q 109 203 120 166 q 131 128 152 100 q 174 73 207 56 q 240 40 283 40 q 342 40 384 71 q 426 102 440 159 l 507 159 q 496 122 478 90 q 460 59 433 36 q 406 12 369 -1 q 332 -14 283 -14 q 221 -14 176 7 q 131 28 102 64 q 73 101 59 150 q 45 200 45 257 q 45 314 62 364 q 78 414 108 452 q 139 489 183 510 q 227 532 283 532 q 390 532 451 458 q 512 385 511 245 z"},"b":{"x_min":0,"x_max":611,"ha":611,"o":"m 139 261 q 139 214 150 174 q 162 133 184 104 q 206 74 239 57 q 272 40 314 40 q 352 40 384 54 q 416 67 440 93 q 464 119 478 156 q 491 194 491 243 q 493 292 483 334 q 473 377 451 409 q 429 441 394 460 q 360 478 314 478 q 273 478 240 460 q 208 443 186 414 q 163 384 151 344 q 139 305 139 261 z m 139 0 l 79 0 l 79 720 l 139 720 l 139 435 q 168 483 218 508 q 269 532 324 532 q 383 532 426 510 q 470 487 498 450 q 527 412 541 362 q 555 312 555 258 q 555 201 542 151 q 529 101 500 64 q 472 28 428 7 q 384 -14 321 -14 q 296 -14 270 -7 q 244 0 220 13 q 195 26 174 46 q 154 65 141 91 l 139 91 z"},"%":{"x_min":0,"x_max":889,"ha":889,"o":"m 658 331 q 692 331 722 318 q 752 305 774 282 q 796 260 808 230 q 821 200 821 166 q 821 132 808 102 q 796 71 774 48 q 752 26 722 13 q 692 0 658 0 q 624 0 594 13 q 563 26 540 48 q 518 71 505 102 q 492 132 492 166 q 492 200 506 230 q 519 260 542 282 q 564 305 594 318 q 624 331 658 331 z m 657 274 q 634 274 614 265 q 595 256 580 241 q 566 226 558 206 q 549 186 549 164 q 549 143 558 124 q 567 104 582 89 q 597 74 616 66 q 636 57 657 57 q 679 57 698 66 q 718 75 732 90 q 747 105 756 124 q 764 144 764 166 q 764 188 756 208 q 747 227 732 242 q 718 257 698 266 q 679 274 657 274 z m 398 532 q 398 498 385 468 q 372 438 350 416 q 327 393 296 380 q 266 367 232 367 q 198 367 168 380 q 138 393 116 416 q 93 438 80 468 q 67 498 67 532 q 67 566 80 596 q 93 626 116 648 q 138 671 168 684 q 198 698 232 698 q 266 698 296 685 q 327 672 350 650 q 372 627 385 596 q 398 566 398 532 z m 232 424 q 254 424 274 432 q 293 441 308 456 q 323 471 332 490 q 341 510 341 532 q 341 554 332 574 q 324 593 309 608 q 294 623 274 632 q 254 641 232 641 q 210 641 190 632 q 171 624 156 609 q 141 594 132 574 q 124 554 124 532 q 124 510 132 490 q 141 471 156 456 q 171 441 190 432 q 210 424 232 424 z m 271 -14 l 219 -14 l 616 705 l 668 705 z"},"m":{"x_min":0,"x_max":833,"ha":833,"o":"m 124 0 l 64 0 l 64 518 l 124 518 l 124 440 l 126 440 q 149 485 192 508 q 235 532 286 532 q 322 532 347 524 q 372 516 390 502 q 407 489 418 471 q 430 453 438 432 q 464 483 508 508 q 551 532 607 532 q 660 532 692 514 q 723 497 740 468 q 757 440 762 403 q 768 366 768 327 l 768 0 l 708 0 l 708 358 q 708 414 684 446 q 661 478 597 478 q 564 478 534 464 q 503 449 480 419 q 470 406 464 388 q 457 371 453 352 q 449 333 448 314 q 446 295 446 279 l 446 0 l 386 0 l 386 358 q 386 414 362 446 q 339 478 275 478 q 242 478 212 464 q 181 449 158 419 q 148 406 142 388 q 135 371 131 352 q 127 333 126 314 q 124 295 124 279 z"},"#":{"x_min":0,"x_max":556,"ha":556,"o":"m 504 228 l 393 228 l 361 0 l 302 0 l 333 228 l 196 228 l 162 0 l 103 0 l 137 228 l 27 228 l 27 287 l 146 287 l 167 427 l 55 427 l 55 486 l 175 486 l 207 698 l 267 698 l 235 486 l 371 486 l 402 698 l 461 698 l 430 486 l 530 486 l 530 427 l 422 427 l 402 287 l 504 287 z m 227 427 l 205 287 l 343 287 l 363 427 z"},",":{"x_min":0,"x_max":278,"ha":278,"o":"m 175 -30 q 175 -74 154 -100 q 134 -127 102 -137 l 102 -100 q 114 -92 125 -78 q 136 -64 136 -34 l 136 0 l 102 0 l 102 88 l 175 88 z"},"n":{"x_min":0,"x_max":556,"ha":556,"o":"m 132 0 l 72 0 l 72 518 l 132 518 l 132 446 q 168 484 206 508 q 245 532 299 532 q 347 532 388 516 q 429 499 457 458 q 476 430 480 400 q 483 371 483 339 l 483 0 l 423 0 l 423 338 q 423 408 392 443 q 361 478 289 478 q 261 478 238 470 q 215 461 196 447 q 178 433 165 415 q 152 397 145 377 q 136 352 134 329 q 132 306 132 279 z"},"h":{"x_min":0,"x_max":556,"ha":556,"o":"m 72 0 l 72 720 l 132 720 l 132 446 q 168 484 206 508 q 245 532 299 532 q 347 532 388 516 q 429 499 457 458 q 476 430 480 400 q 483 371 483 339 l 483 0 l 423 0 l 423 338 q 423 408 392 443 q 361 478 289 478 q 261 478 238 470 q 215 461 196 447 q 178 433 165 415 q 152 397 145 377 q 136 352 134 329 q 132 306 132 279 l 132 0 z"},"z":{"x_min":0,"x_max":500,"ha":500,"o":"m 33 0 l 33 53 l 377 468 l 56 468 l 56 518 l 454 518 l 454 465 l 110 50 l 467 50 l 467 0 z"},"B":{"x_min":0,"x_max":667,"ha":667,"o":"m 149 58 l 322 58 q 378 58 420 63 q 461 68 488 84 q 515 99 528 128 q 542 156 542 203 q 542 248 527 276 q 512 303 484 318 q 456 333 417 338 q 378 344 330 344 l 149 344 z m 149 402 l 321 402 q 374 402 410 411 q 446 420 468 438 q 490 455 500 480 q 509 506 509 539 q 509 573 498 596 q 487 620 463 634 q 439 649 400 656 q 362 662 306 662 l 149 662 z m 81 0 l 81 720 l 341 720 q 404 720 449 707 q 494 694 522 670 q 551 646 564 612 q 577 579 577 539 q 577 501 567 474 q 557 446 541 428 q 525 409 504 398 q 484 388 462 384 l 462 382 q 537 371 574 323 q 610 275 610 203 q 610 147 592 108 q 575 69 544 45 q 513 21 470 10 q 426 0 375 0 z"},"K":{"x_min":0,"x_max":667,"ha":667,"o":"m 85 0 l 85 720 l 153 720 l 153 347 l 522 720 l 599 720 l 315 433 l 649 0 l 566 0 l 266 391 l 153 278 l 153 0 z"},"R":{"x_min":0,"x_max":667,"ha":667,"o":"m 360 385 q 398 385 430 393 q 463 401 487 418 q 511 436 525 463 q 539 490 539 528 q 539 568 524 594 q 510 620 486 635 q 461 650 430 656 q 398 662 364 662 l 148 662 l 148 385 z m 148 327 l 148 0 l 80 0 l 80 720 l 362 720 q 481 720 544 676 q 607 631 607 531 q 607 463 580 423 q 552 383 490 355 q 522 344 540 323 q 558 302 567 275 q 576 248 578 218 q 581 188 582 160 q 583 119 586 92 q 588 65 592 48 q 595 31 600 22 q 605 12 612 7 l 612 0 l 537 0 q 526 18 522 50 q 517 82 514 117 q 512 152 510 185 q 509 218 505 239 q 499 268 486 286 q 472 303 453 312 q 434 321 410 324 q 387 327 362 327 z"},"T":{"x_min":0,"x_max":556,"ha":556,"o":"m 16 720 l 540 720 l 540 662 l 312 662 l 312 0 l 244 0 l 244 662 l 16 662 z"},"P":{"x_min":0,"x_max":611,"ha":611,"o":"m 78 0 l 78 720 l 341 720 q 411 720 456 704 q 502 688 528 660 q 555 632 566 596 q 576 559 576 519 q 576 459 552 420 q 527 381 488 358 q 449 336 400 327 q 350 318 300 318 l 146 318 l 146 0 z m 302 376 q 350 376 388 382 q 426 388 452 404 q 479 421 494 450 q 508 478 508 524 q 508 592 464 627 q 419 662 322 662 l 146 662 l 146 376 z"},"|":{"x_min":0,"x_max":222,"ha":222,"o":"m 141 750 l 141 -250 l 81 -250 l 81 750 z"},"t":{"x_min":0,"x_max":278,"ha":278,"o":"m 254 -2 q 243 -4 225 -9 q 207 -14 185 -14 q 140 -14 116 8 q 93 31 93 89 l 93 468 l 20 468 l 20 518 l 93 518 l 93 662 l 153 662 l 153 518 l 250 518 l 250 468 l 153 468 l 153 113 q 153 94 154 80 q 155 66 160 57 q 165 48 176 44 q 186 40 205 40 q 217 40 230 42 q 242 44 254 47 z"},"M":{"x_min":0,"x_max":833,"ha":833,"o":"m 78 0 l 78 720 l 182 720 l 418 85 l 420 85 l 652 720 l 755 720 l 755 0 l 687 0 l 687 642 l 685 642 l 449 0 l 385 0 l 148 642 l 146 642 l 146 0 z"},"g":{"x_min":0,"x_max":611,"ha":611,"o":"m 472 257 q 472 304 460 344 q 449 385 427 414 q 405 444 372 461 q 339 478 297 478 q 259 478 227 464 q 195 451 171 425 q 147 399 134 362 q 120 324 120 275 q 118 226 128 184 q 138 141 160 109 q 182 77 216 58 q 250 40 297 40 q 338 40 370 58 q 403 75 426 104 q 448 134 460 174 q 472 213 472 257 z m 472 518 l 532 518 l 532 50 q 532 -2 522 -50 q 511 -97 484 -133 q 457 -169 410 -190 q 363 -212 289 -212 q 232 -212 191 -198 q 150 -183 124 -161 q 98 -139 84 -112 q 71 -86 70 -63 l 134 -63 q 141 -92 156 -110 q 171 -129 192 -140 q 212 -150 237 -154 q 262 -158 289 -158 q 350 -158 387 -137 q 424 -116 443 -82 q 462 -48 468 -5 q 473 38 472 83 q 443 35 392 10 q 342 -14 287 -14 q 228 -14 184 8 q 141 31 112 68 q 84 106 70 156 q 56 206 56 260 q 56 317 69 367 q 82 417 110 454 q 139 490 183 511 q 227 532 290 532 q 315 532 341 525 q 367 518 392 505 q 416 492 436 472 q 457 452 470 427 l 472 427 z"},"j":{"x_min":0,"x_max":222,"ha":222,"o":"m 148 518 l 148 -69 q 148 -102 145 -127 q 142 -152 132 -170 q 121 -187 100 -196 q 80 -204 44 -204 q 22 -204 5 -200 l 5 -147 q 31 -150 47 -148 q 63 -145 72 -136 q 81 -127 84 -112 q 88 -97 88 -77 l 88 518 z m 151 631 l 85 631 l 85 720 l 151 720 z"},"i":{"x_min":0,"x_max":222,"ha":222,"o":"m 81 0 l 81 518 l 141 518 l 141 0 z m 78 631 l 78 720 l 144 720 l 144 631 z"},"y":{"x_min":0,"x_max":500,"ha":500,"o":"m 68 -141 q 80 -143 92 -145 q 105 -147 118 -147 q 143 -147 159 -131 q 175 -115 186 -92 q 196 -70 203 -46 q 210 -21 219 -4 l 18 518 l 85 518 l 251 73 l 417 518 l 482 518 l 289 7 q 271 -42 254 -81 q 238 -120 220 -148 q 201 -175 178 -190 q 156 -204 125 -204 q 109 -204 94 -202 q 80 -200 68 -197 z"},"@":{"x_min":0,"x_max":800,"ha":800,"o":"m 743 167 q 719 123 684 88 q 649 54 606 30 q 564 6 516 -6 q 468 -19 419 -19 q 339 -19 270 11 q 200 41 149 93 q 98 145 69 214 q 40 284 40 363 q 40 441 70 510 q 100 578 152 629 q 203 680 271 710 q 339 739 415 739 q 487 739 550 716 q 613 692 660 650 q 706 608 733 550 q 760 492 760 423 q 760 364 738 311 q 717 258 684 218 q 650 178 608 154 q 567 131 527 131 q 501 131 476 144 q 450 156 441 183 q 418 160 386 146 q 354 133 322 133 q 290 133 264 145 q 238 157 220 178 q 202 198 192 225 q 183 252 183 283 q 183 333 201 386 q 219 440 252 484 q 284 529 330 558 q 375 586 431 586 q 466 586 497 569 q 528 552 543 520 l 558 566 l 625 566 l 524 264 q 518 247 514 232 q 511 218 512 207 q 513 196 520 190 q 526 183 541 183 q 572 183 601 206 q 630 229 652 264 q 674 300 687 343 q 700 386 700 426 q 700 487 677 536 q 654 585 615 619 q 576 653 525 671 q 474 689 417 689 q 348 689 290 662 q 231 636 189 590 q 147 545 124 484 q 100 424 100 356 q 100 288 124 229 q 149 170 192 126 q 235 82 293 56 q 351 31 419 31 q 458 31 496 40 q 533 49 568 66 q 602 84 632 110 q 661 135 684 167 z m 337 196 q 371 196 401 224 q 431 252 454 292 q 476 331 489 376 q 502 420 502 454 q 502 483 483 505 q 464 527 433 527 q 393 527 361 502 q 329 478 306 442 q 284 405 272 364 q 259 322 259 288 q 259 252 279 224 q 299 196 337 196 z"},".":{"x_min":0,"x_max":278,"ha":278,"o":"m 102 0 l 102 88 l 175 88 l 175 0 z"},"p":{"x_min":0,"x_max":611,"ha":611,"o":"m 139 257 q 139 213 151 174 q 163 134 186 104 q 208 75 240 58 q 273 40 314 40 q 360 40 394 58 q 429 77 451 109 q 473 141 483 184 q 493 226 491 275 q 491 324 478 362 q 464 399 440 425 q 416 451 384 464 q 352 478 314 478 q 272 478 239 461 q 206 444 184 414 q 162 385 150 344 q 139 304 139 257 z m 139 -204 l 79 -204 l 79 518 l 139 518 l 139 427 l 141 427 q 154 452 174 472 q 195 492 220 505 q 244 518 270 525 q 296 532 321 532 q 384 532 428 511 q 472 490 500 454 q 529 417 542 367 q 555 317 555 260 q 555 206 541 156 q 527 106 498 68 q 470 31 426 8 q 383 -14 324 -14 q 269 -14 218 10 q 168 35 139 83 z"},"X":{"x_min":0,"x_max":611,"ha":611,"o":"m 304 318 l 95 0 l 18 0 l 266 370 l 28 720 l 107 720 l 304 417 l 502 720 l 581 720 l 345 370 l 592 0 l 514 0 z"},"*":{"x_min":0,"x_max":389,"ha":389,"o":"m 173 603 l 173 720 l 215 720 l 215 603 l 329 645 l 344 601 l 230 564 l 305 458 l 266 434 l 192 542 l 114 436 l 79 463 l 156 564 l 44 604 l 62 646 z"},"Y":{"x_min":0,"x_max":611,"ha":611,"o":"m 302 373 l 519 720 l 598 720 l 337 314 l 337 0 l 269 0 l 269 309 l 12 720 l 90 720 z"},"c":{"x_min":0,"x_max":556,"ha":556,"o":"m 439 355 q 423 413 384 446 q 345 478 285 478 q 239 478 206 459 q 173 440 152 408 q 131 377 121 338 q 111 298 111 258 q 111 217 120 178 q 130 139 151 108 q 172 77 205 58 q 238 40 285 40 q 352 40 392 77 q 433 114 444 179 l 508 179 q 500 136 482 100 q 465 65 438 40 q 410 14 372 0 q 334 -14 285 -14 q 223 -14 178 7 q 133 28 104 64 q 75 101 61 151 q 47 201 47 258 q 47 312 62 362 q 78 411 108 449 q 138 487 182 510 q 227 532 285 532 q 375 532 430 489 q 486 446 500 355 z"},"!":{"x_min":0,"x_max":333,"ha":333,"o":"m 130 496 l 130 720 l 203 720 l 203 496 l 189 181 l 144 181 z m 130 0 l 130 88 l 203 88 l 203 0 z"},"/":{"x_min":0,"x_max":278,"ha":278,"o":"m 53 -90 l -3 -90 l 232 739 l 288 739 z"},"[":{"x_min":0,"x_max":333,"ha":333,"o":"m 91 -191 l 91 739 l 282 739 l 282 689 l 155 689 l 155 -141 l 280 -141 l 280 -191 z"},"6":{"x_min":0,"x_max":556,"ha":556,"o":"m 437 532 q 426 586 393 618 q 360 651 303 651 q 238 651 200 620 q 163 589 143 542 q 123 494 116 438 q 109 382 105 332 q 120 352 136 372 q 153 392 174 408 q 195 423 223 432 q 251 442 290 442 q 397 442 456 382 q 514 321 514 215 q 514 108 455 47 q 396 -14 288 -14 q 235 -14 190 4 q 145 21 112 61 q 79 101 60 166 q 41 230 41 323 q 41 386 52 454 q 63 521 92 577 q 120 633 170 669 q 219 705 297 705 q 381 705 437 661 q 493 617 503 532 z m 288 388 q 251 388 222 374 q 192 360 172 336 q 151 312 140 280 q 129 249 129 213 q 129 183 138 152 q 146 122 166 97 q 185 72 215 56 q 245 40 289 40 q 334 40 364 56 q 395 71 414 96 q 433 122 442 154 q 450 185 450 217 q 450 299 410 344 q 371 388 288 388 z"},"r":{"x_min":0,"x_max":333,"ha":333,"o":"m 135 0 l 75 0 l 75 518 l 135 518 l 135 421 l 137 421 q 162 483 202 508 q 241 532 306 532 l 306 467 q 255 468 222 451 q 189 434 170 405 q 150 376 142 336 q 135 297 135 254 z"},"2":{"x_min":0,"x_max":556,"ha":556,"o":"m 69 474 q 69 526 85 568 q 101 611 131 642 q 161 672 204 688 q 246 705 298 705 q 351 705 392 690 q 432 674 460 648 q 487 622 501 586 q 515 550 515 510 q 515 463 500 427 q 484 391 458 363 q 433 335 400 313 q 368 291 334 272 q 300 252 267 234 q 234 216 208 196 q 191 183 175 168 q 159 154 146 137 q 133 120 125 100 q 117 79 116 54 l 509 54 l 509 0 l 48 0 q 49 51 59 92 q 69 133 103 172 q 140 214 180 244 q 219 274 257 298 q 295 321 329 340 q 363 360 389 383 q 415 406 430 435 q 445 464 445 506 q 445 540 433 567 q 421 594 400 613 q 379 632 351 642 q 323 651 290 651 q 255 651 226 636 q 198 622 178 598 q 157 574 146 542 q 135 510 137 474 z"},"{":{"x_min":0,"x_max":333,"ha":333,"o":"m 127 577 q 127 621 134 652 q 140 683 156 702 q 173 722 201 730 q 229 738 272 737 q 191 709 191 616 l 191 424 q 191 395 188 371 q 185 347 176 328 q 167 309 151 296 q 135 282 109 275 l 109 273 q 158 262 174 228 q 191 194 191 138 l 191 -68 q 191 -119 211 -147 q 231 -175 279 -189 l 279 -191 q 235 -192 206 -184 q 176 -176 158 -158 q 141 -140 134 -112 q 127 -85 127 -47 l 127 157 q 127 203 112 233 q 96 263 45 273 l 45 275 q 73 283 89 294 q 105 304 114 318 q 122 332 124 351 q 127 370 127 395 z"},"9":{"x_min":0,"x_max":556,"ha":556,"o":"m 118 155 q 129 98 162 69 q 196 40 255 40 q 318 40 356 71 q 393 102 414 149 q 434 196 442 250 q 449 305 451 353 l 449 355 q 417 301 370 273 q 322 245 259 245 q 209 245 169 261 q 129 277 100 307 q 72 337 56 379 q 41 421 41 472 q 41 522 55 564 q 69 607 97 638 q 125 670 168 688 q 210 705 268 705 q 339 705 386 677 q 434 649 462 601 q 491 553 503 488 q 515 423 515 349 q 515 259 496 192 q 477 124 442 78 q 408 32 361 9 q 314 -14 258 -14 q 217 -14 181 -4 q 145 6 118 27 q 91 48 74 80 q 57 112 53 155 z m 268 651 q 187 649 146 601 q 105 553 105 470 q 105 389 148 344 q 190 299 268 299 q 305 299 334 313 q 364 327 384 351 q 405 375 416 406 q 426 438 426 474 q 426 552 384 600 q 342 649 268 651 z"}," ":{"x_min":0,"x_max":278,"ha":278,"o":""},"I":{"x_min":0,"x_max":278,"ha":278,"o":"m 105 0 l 105 720 l 173 720 l 173 0 z"},"H":{"x_min":0,"x_max":722,"ha":722,"o":"m 80 0 l 80 720 l 148 720 l 148 411 l 574 411 l 574 720 l 642 720 l 642 0 l 574 0 l 574 353 l 148 353 l 148 0 z"},"4":{"x_min":0,"x_max":556,"ha":556,"o":"m 358 174 l 36 174 l 36 229 l 364 698 l 422 698 l 422 228 l 520 228 l 520 174 l 422 174 l 422 0 l 358 0 z m 99 228 l 358 228 l 358 602 z"},"~":{"x_min":0,"x_max":660,"ha":660,"o":"m 221 324 q 248 324 278 313 q 309 302 338 288 q 368 274 394 263 q 421 252 441 252 q 458 252 473 260 q 488 269 500 282 q 513 295 523 310 q 533 325 540 339 l 580 305 q 569 285 556 266 q 542 246 524 230 q 507 215 486 206 q 465 196 440 196 q 426 196 408 200 q 390 205 372 212 q 353 218 336 226 q 318 233 305 238 q 285 246 264 257 q 243 268 221 268 q 201 268 185 259 q 169 250 156 236 q 143 222 132 206 q 122 189 113 174 l 80 221 q 91 237 104 255 q 118 273 135 288 q 152 304 173 314 q 194 324 221 324 z"},"D":{"x_min":0,"x_max":722,"ha":722,"o":"m 81 0 l 81 720 l 327 720 q 357 720 386 718 q 415 717 443 712 q 471 706 498 695 q 524 684 549 666 q 585 640 608 602 q 631 565 644 524 q 658 482 664 440 q 669 397 669 361 q 669 325 664 288 q 660 251 650 216 q 640 180 624 148 q 607 115 582 88 q 557 60 528 43 q 498 26 466 16 q 433 7 398 4 q 363 0 327 0 z m 149 58 l 312 58 q 358 58 398 64 q 439 69 481 91 q 517 109 540 140 q 563 171 576 208 q 590 244 596 284 q 601 324 601 361 q 601 400 596 440 q 591 481 577 518 q 563 554 539 584 q 515 615 477 635 q 445 652 401 657 q 357 662 312 662 l 149 662 z"},"^":{"x_min":0,"x_max":660,"ha":660,"o":"m 73 245 l 303 698 l 355 698 l 586 245 l 529 245 l 328 637 l 131 245 z"},"0":{"x_min":0,"x_max":556,"ha":556,"o":"m 452 347 q 452 404 446 458 q 439 513 420 556 q 401 599 366 625 q 332 651 276 651 q 223 651 190 624 q 156 598 137 554 q 118 510 110 454 q 103 398 103 340 q 103 272 112 216 q 120 161 140 122 q 160 83 194 62 q 227 40 278 40 q 335 40 370 68 q 404 96 422 140 q 440 184 446 239 q 452 294 452 347 z m 278 705 q 330 705 368 690 q 406 674 432 647 q 459 620 476 584 q 492 548 501 508 q 510 467 513 424 q 516 381 516 340 q 516 270 506 206 q 496 142 470 93 q 443 44 397 15 q 351 -14 278 -14 q 205 -14 158 15 q 112 44 86 94 q 59 143 49 208 q 39 274 39 347 q 39 414 48 478 q 57 542 82 592 q 108 643 155 674 q 202 705 278 705 z"},"F":{"x_min":0,"x_max":556,"ha":556,"o":"m 74 0 l 74 720 l 538 720 l 538 662 l 142 662 l 142 402 l 502 402 l 502 344 l 142 344 l 142 0 z"},"`":{"x_min":0,"x_max":333,"ha":333,"o":"m 45 713 l 123 713 l 234 574 l 183 574 z"},"k":{"x_min":0,"x_max":500,"ha":500,"o":"m 68 0 l 68 720 l 128 720 l 128 272 l 382 518 l 464 518 l 270 331 l 487 0 l 420 0 l 226 289 l 128 196 l 128 0 z"},"u":{"x_min":0,"x_max":556,"ha":556,"o":"m 423 518 l 483 518 l 483 0 l 423 0 l 423 72 q 411 58 396 43 q 381 28 362 16 q 342 3 316 -6 q 290 -14 256 -14 q 204 -14 169 0 q 134 15 112 41 q 91 67 82 102 q 72 136 72 177 l 72 518 l 132 518 l 132 178 q 132 111 163 76 q 194 40 265 40 q 302 40 332 54 q 361 69 381 95 q 401 121 412 157 q 423 193 423 236 z"},"]":{"x_min":0,"x_max":333,"ha":333,"o":"m 242 -191 l 51 -191 l 51 -141 l 178 -141 l 178 689 l 53 689 l 53 739 l 242 739 z"},"U":{"x_min":0,"x_max":722,"ha":722,"o":"m 82 720 l 150 720 l 150 291 q 150 157 200 98 q 250 39 361 39 q 419 39 460 54 q 500 70 525 102 q 550 133 561 180 q 572 227 572 291 l 572 720 l 640 720 l 640 271 q 640 130 570 56 q 501 -19 361 -19 q 220 -19 151 57 q 82 133 82 271 z"},"o":{"x_min":0,"x_max":556,"ha":556,"o":"m 278 -14 q 228 -13 184 4 q 141 21 108 55 q 76 89 57 140 q 38 191 38 259 q 38 316 53 366 q 68 415 98 452 q 128 489 173 510 q 218 532 278 532 q 339 532 384 510 q 429 489 459 452 q 489 416 504 366 q 518 316 518 259 q 518 197 501 147 q 484 97 452 61 q 421 25 376 6 q 332 -14 278 -14 z m 454 259 q 454 305 444 345 q 434 385 413 414 q 392 444 359 461 q 326 478 278 478 q 231 478 198 460 q 164 441 143 410 q 122 380 112 340 q 102 301 102 259 q 102 211 114 170 q 125 130 147 101 q 169 72 202 56 q 235 40 278 40 q 325 40 358 58 q 392 77 413 108 q 434 139 444 178 q 454 217 454 259 z"},"N":{"x_min":0,"x_max":722,"ha":722,"o":"m 149 628 l 147 628 l 147 0 l 79 0 l 79 720 l 156 720 l 572 91 l 574 91 l 574 720 l 642 720 l 642 0 l 563 0 z"},"+":{"x_min":0,"x_max":660,"ha":660,"o":"m 300 500 l 360 500 l 360 280 l 580 280 l 580 220 l 360 220 l 360 0 l 300 0 l 300 220 l 80 220 l 80 280 l 300 280 z"},"G":{"x_min":0,"x_max":778,"ha":778,"o":"m 387 314 l 387 372 l 695 372 l 695 0 l 637 0 l 637 123 q 618 91 594 64 q 569 38 537 20 q 505 1 463 -9 q 421 -19 368 -19 q 300 -19 242 5 q 184 29 142 76 q 100 124 76 196 q 53 268 53 364 q 53 443 73 512 q 93 580 134 630 q 176 681 238 710 q 301 739 386 739 q 443 739 492 725 q 542 711 582 682 q 621 654 648 612 q 675 569 687 511 l 617 511 q 608 551 586 583 q 565 615 535 636 q 505 658 468 670 q 431 681 391 681 q 320 681 269 656 q 218 631 185 586 q 152 540 136 476 q 121 413 121 337 q 121 277 138 223 q 156 169 190 128 q 223 87 272 63 q 320 39 382 39 q 411 39 442 46 q 473 52 502 67 q 531 82 556 106 q 581 130 599 165 q 616 199 622 236 q 629 273 630 314 z"},"q":{"x_min":0,"x_max":611,"ha":611,"o":"m 472 261 q 472 305 460 344 q 448 384 426 414 q 403 443 370 460 q 338 478 297 478 q 250 478 216 460 q 182 441 160 409 q 138 377 128 334 q 118 292 120 243 q 120 194 134 156 q 147 119 171 93 q 195 67 227 54 q 259 40 297 40 q 339 40 372 57 q 405 74 427 104 q 449 133 460 174 q 472 214 472 261 z m 472 518 l 532 518 l 532 -204 l 472 -204 l 472 83 q 443 35 392 10 q 342 -14 287 -14 q 228 -14 184 8 q 141 31 112 68 q 84 106 70 156 q 56 206 56 260 q 56 317 69 367 q 82 417 110 454 q 139 490 183 511 q 227 532 290 532 q 315 532 341 525 q 367 518 392 505 q 416 492 436 472 q 457 452 470 427 l 472 427 z"},"d":{"x_min":0,"x_max":611,"ha":611,"o":"m 472 261 q 472 305 460 344 q 448 384 426 414 q 403 443 370 460 q 338 478 297 478 q 250 478 216 460 q 182 441 160 409 q 138 377 128 334 q 118 292 120 243 q 120 194 134 156 q 147 119 171 93 q 195 67 227 54 q 259 40 297 40 q 339 40 372 57 q 405 74 427 104 q 449 133 460 174 q 472 214 472 261 z m 472 720 l 532 720 l 532 0 l 472 0 l 472 91 l 470 91 q 457 65 436 46 q 416 26 392 13 q 367 0 341 -7 q 315 -14 290 -14 q 227 -14 183 7 q 139 28 110 64 q 82 101 69 151 q 56 201 56 258 q 56 312 70 362 q 84 412 112 450 q 141 487 184 510 q 228 532 287 532 q 342 532 392 508 q 443 483 472 435 z"},"1":{"x_min":0,"x_max":556,"ha":556,"o":"m 302 524 l 120 524 l 120 566 q 160 569 192 574 q 225 579 250 593 q 274 607 290 634 q 307 660 315 705 l 366 705 l 366 0 l 302 0 z"},"5":{"x_min":0,"x_max":556,"ha":556,"o":"m 99 183 q 109 111 156 76 q 204 40 273 40 q 312 40 344 54 q 375 68 397 92 q 419 117 430 150 q 442 182 442 220 q 442 259 430 292 q 417 325 394 349 q 372 373 340 386 q 307 399 267 399 q 219 399 181 382 q 143 364 114 326 l 61 333 l 118 698 l 468 698 l 468 644 l 172 644 l 128 407 q 149 420 166 429 q 184 438 202 444 q 220 449 240 451 q 259 453 283 453 q 331 453 372 437 q 413 421 443 391 q 473 361 490 318 q 506 274 506 220 q 506 164 488 120 q 469 77 438 47 q 407 17 366 2 q 326 -14 283 -14 q 233 -14 190 -4 q 146 6 113 30 q 80 53 60 90 q 39 128 35 183 z"}}}
